<?xml version="1.0" encoding="utf-8"?>
<!-- Generator: Adobe Illustrator 22.0.1, SVG Export Plug-In . SVG Version: 6.00 Build 0)  -->
<svg version="1.1" id="Camada_1" xmlns="http://www.w3.org/2000/svg" xmlns:xlink="http://www.w3.org/1999/xlink" x="0px" y="0px"
	 viewBox="0 0 141.3 135.7" style="enable-background:new 0 0 141.3 135.7;" xml:space="preserve">
<style type="text/css">
	.st0{display:none;}
	.st1{font-family:'InkFree';}
	.st2{font-size:70.4296px;}
	.st3{display:none;fill:#FFFFFF;}
</style>
<g>
	<g>
		<path d="M36.9,102c-4.2,0-8.7-0.9-13-2.7C18,97,13.1,93.4,10,89.3c-3-4-4-8.1-2.6-11.5c1.7-4.2,6.8-6.7,13.7-6.7
			c4.2,0,8.7,0.9,13,2.7c11.9,4.8,19.2,14.5,16.4,21.5C48.9,99.5,43.8,102,36.9,102z"/>
		<path d="M21.1,70.6v1h0c4.1,0,8.6,0.9,12.8,2.7c5.7,2.3,10.5,5.8,13.6,9.9c2.9,3.9,3.8,7.8,2.5,11c-1.6,4-6.6,6.4-13.2,6.4
			c-4.1,0-8.6-0.9-12.9-2.7C12.4,94.1,5.2,84.8,7.9,78c1.6-4,6.6-6.4,13.2-6.4L21.1,70.6 M21.1,70.6c-6.8,0-12.3,2.5-14.2,7
			c-3,7.3,4.5,17.2,16.7,22.1c4.6,1.8,9.1,2.7,13.2,2.7c6.8,0,12.3-2.5,14.2-7c3-7.3-4.5-17.2-16.7-22.1
			C29.8,71.5,25.2,70.6,21.1,70.6L21.1,70.6z"/>
	</g>
	<g>
		<path d="M65.5,68.8c-5.8,0-12.7-3-18.5-8c-4.7-4.1-8.2-9-9.9-13.9c-1.6-4.8-1.2-9,1.2-11.7c1.8-2.1,4.6-3.2,8.2-3.2
			c5.8,0,12.7,3,18.5,8c4.7,4.1,8.2,9,9.9,13.9c1.6,4.8,1.2,9-1.2,11.7C71.9,67.7,69.1,68.8,65.5,68.8z"/>
		<path d="M46.6,32.5L46.6,32.5c5.6,0,12.4,2.9,18.1,7.9c4.7,4,8.1,8.9,9.7,13.7c1.5,4.6,1.1,8.6-1.1,11.2c-1.7,2-4.4,3-7.8,3
			c-5.6,0-12.4-2.9-18.1-7.9c-9.5-8.2-13.4-19.4-8.6-24.9C40.5,33.5,43.2,32.5,46.6,32.5 M46.6,31.5c-3.5,0-6.6,1.1-8.5,3.4
			c-5.1,6-1.2,17.8,8.7,26.3c6.1,5.3,13.1,8.1,18.8,8.1c3.5,0,6.6-1.1,8.5-3.4c5.1-6,1.2-17.8-8.7-26.3
			C59.3,34.3,52.3,31.5,46.6,31.5L46.6,31.5z"/>
	</g>
	<g>
		<path d="M102,49.2c-6.7,0-14.2-6.8-18.5-16.6C78.5,20.8,80,8.7,87,5.7c1-0.5,2.2-0.7,3.4-0.7c6.7,0,14.2,6.8,18.5,16.6
			c5.1,11.8,3.5,23.8-3.4,26.8C104.4,48.9,103.2,49.2,102,49.2z"/>
		<path d="M90.4,5.6L90.4,5.6c6.5,0,13.9,6.7,18,16.3c2.4,5.7,3.4,11.6,2.7,16.6c-0.7,4.8-2.8,8.2-5.9,9.6c-1,0.4-2.1,0.6-3.2,0.6
			c-6.5,0-13.9-6.7-18-16.3c-2.4-5.7-3.4-11.6-2.7-16.6c0.7-4.8,2.8-8.2,5.9-9.6C88.2,5.8,89.3,5.6,90.4,5.6 M90.4,4.6
			c-1.2,0-2.4,0.2-3.6,0.7c-7.2,3.1-8.9,15.4-3.7,27.5c4.4,10.2,12.2,16.9,18.9,16.9c1.2,0,2.4-0.2,3.6-0.7
			c7.2-3.1,8.9-15.4,3.7-27.5C104.9,11.3,97.1,4.6,90.4,4.6L90.4,4.6z"/>
	</g>
	<g>
		<path d="M101.2,130c-9.4,0-18-4-23.5-11.1c-5-6.4-7-14.5-5.6-22.9c1.4-8.4,6-16,13-21.4c6.2-4.8,13.7-7.5,21.3-7.5
			c9.4,0,18,4,23.5,11.1c10.3,13.2,7,33.1-7.4,44.3C116.3,127.4,108.7,130,101.2,130z"/>
		<path d="M106.3,66.7v1h0c9.3,0,17.7,4,23.1,10.9c4.9,6.3,6.9,14.3,5.5,22.5c-1.4,8.3-5.9,15.7-12.8,21.1c-6.1,4.7-13.5,7.3-21,7.3
			c-9.3,0-17.7-4-23.1-10.9c-4.9-6.3-6.9-14.3-5.5-22.5c1.4-8.3,5.9-15.7,12.8-21.1c6.1-4.7,13.5-7.3,21-7.3L106.3,66.7 M106.3,66.7
			c-7.4,0-15.1,2.5-21.6,7.6c-14.6,11.4-17.9,31.5-7.5,45c5.8,7.5,14.7,11.3,23.9,11.3c7.4,0,15.1-2.5,21.6-7.6
			c14.6-11.4,17.9-31.5,7.5-45C124.4,70.5,115.5,66.7,106.3,66.7L106.3,66.7z"/>
	</g>
</g>
<text transform="matrix(1 -3.570013e-03 3.570013e-03 1 -143.1425 96.3244)" class="st0 st1 st2">PET</text>
<text transform="matrix(1 -3.570013e-03 3.570013e-03 1 159.9825 95.2422)" class="st0 st1 st2">SHOW</text>
<path class="st3" d="M93.6,86.4v21.9c0,2.1,2.3,3.5,4.2,2.4l18.4-10.9c1.8-1.1,1.8-3.7,0-4.8L97.8,84C96,82.9,93.6,84.3,93.6,86.4z"
	/>
</svg>
