<?xml version="1.0" encoding="utf-8"?>
<!-- Generator: Adobe Illustrator 22.0.1, SVG Export Plug-In . SVG Version: 6.00 Build 0)  -->
<svg version="1.1" xmlns="http://www.w3.org/2000/svg" xmlns:xlink="http://www.w3.org/1999/xlink" x="0px" y="0px"
	 viewBox="0 0 491 267" style="enable-background:new 0 0 491 267;" xml:space="preserve">
<style type="text/css">
	.st0{display:none;}
	.st1{display:inline;}
	.st2{font-family:'InkFree';}
	.st3{font-size:70.4296px;}
	.st4{display:inline;fill:#FFFFFF;}
	.st5{font-family:'Abula';}
	.st6{font-size:1076.844px;}
</style>
<g id="Camada_1" class="st0">
	<g class="st1">
		<g>
			<path d="M183.6,160.7c-4.2,0-8.7-0.9-13-2.7c-5.8-2.3-10.7-5.9-13.8-10c-3-4-4-8.1-2.6-11.5c1.7-4.2,6.8-6.7,13.7-6.7
				c4.2,0,8.7,0.9,13,2.7c11.9,4.8,19.2,14.5,16.4,21.5C195.5,158.2,190.4,160.7,183.6,160.7z"/>
			<path d="M167.8,129.3v1h0c4.1,0,8.6,0.9,12.8,2.7c5.7,2.3,10.5,5.8,13.6,9.9c2.9,3.9,3.8,7.8,2.5,11c-1.6,4-6.6,6.4-13.2,6.4
				c-4.1,0-8.6-0.9-12.9-2.7c-11.6-4.7-18.9-14.1-16.1-20.8c1.6-4,6.6-6.4,13.2-6.4L167.8,129.3 M167.8,129.3
				c-6.8,0-12.3,2.5-14.2,7c-3,7.3,4.5,17.2,16.7,22.1c4.6,1.8,9.1,2.7,13.2,2.7c6.8,0,12.3-2.5,14.2-7c3-7.3-4.5-17.2-16.7-22.1
				C176.5,130.2,171.9,129.3,167.8,129.3L167.8,129.3z"/>
		</g>
		<g>
			<path d="M212.2,127.5c-5.8,0-12.7-3-18.5-8c-4.7-4.1-8.2-9-9.9-13.9c-1.6-4.8-1.2-9,1.2-11.7c1.8-2.1,4.6-3.2,8.2-3.2
				c5.8,0,12.7,3,18.5,8c4.7,4.1,8.2,9,9.9,13.9c1.6,4.8,1.2,9-1.2,11.7C218.6,126.3,215.7,127.5,212.2,127.5z"/>
			<path d="M193.3,91.1L193.3,91.1c5.6,0,12.4,2.9,18.1,7.9c4.7,4,8.1,8.9,9.7,13.7c1.5,4.6,1.1,8.6-1.1,11.2c-1.7,2-4.4,3-7.8,3
				c-5.6,0-12.4-2.9-18.1-7.9c-9.5-8.2-13.4-19.4-8.6-24.9C187.2,92.2,189.9,91.1,193.3,91.1 M193.3,90.1c-3.5,0-6.6,1.1-8.5,3.4
				c-5.1,6-1.2,17.8,8.7,26.3c6.1,5.3,13.1,8.1,18.8,8.1c3.5,0,6.6-1.1,8.5-3.4c5.1-6,1.2-17.8-8.7-26.3
				C205.9,93,198.9,90.1,193.3,90.1L193.3,90.1z"/>
		</g>
		<g>
			<path d="M248.7,107.8c-6.7,0-14.2-6.8-18.5-16.6c-5.1-11.8-3.5-23.8,3.4-26.8c1-0.5,2.2-0.7,3.4-0.7c6.7,0,14.2,6.8,18.5,16.6
				c5.1,11.8,3.5,23.8-3.4,26.8C251,107.6,249.9,107.8,248.7,107.8z"/>
			<path d="M237.1,64.2L237.1,64.2c6.5,0,13.9,6.7,18,16.3c2.4,5.7,3.4,11.6,2.7,16.6c-0.7,4.8-2.8,8.2-5.9,9.6
				c-1,0.4-2.1,0.6-3.2,0.6c-6.5,0-13.9-6.7-18-16.3c-2.4-5.7-3.4-11.6-2.7-16.6c0.7-4.8,2.8-8.2,5.9-9.6
				C234.9,64.4,235.9,64.2,237.1,64.2 M237.1,63.2c-1.2,0-2.4,0.2-3.6,0.7c-7.2,3.1-8.9,15.4-3.7,27.5c4.4,10.2,12.2,16.9,18.9,16.9
				c1.2,0,2.4-0.2,3.6-0.7c7.2-3.1,8.9-15.4,3.7-27.5C251.6,70,243.8,63.2,237.1,63.2L237.1,63.2z"/>
		</g>
		<g>
			<path d="M247.8,188.7c-9.4,0-18-4-23.5-11.1c-5-6.4-7-14.5-5.6-22.9c1.4-8.4,6-16,13-21.4c6.2-4.8,13.7-7.5,21.3-7.5
				c9.4,0,18,4,23.5,11.1c10.3,13.2,7,33.1-7.4,44.3C262.9,186.1,255.4,188.7,247.8,188.7z"/>
			<path d="M253,125.4v1h0c9.3,0,17.7,4,23.1,10.9c4.9,6.3,6.9,14.3,5.5,22.5c-1.4,8.3-5.9,15.7-12.8,21.1c-6.1,4.7-13.5,7.3-21,7.3
				c-9.3,0-17.7-4-23.1-10.9c-4.9-6.3-6.9-14.3-5.5-22.5c1.4-8.3,5.9-15.7,12.8-21.1c6.1-4.7,13.5-7.3,21-7.3L253,125.4 M253,125.4
				c-7.4,0-15.1,2.5-21.6,7.6c-14.6,11.4-17.9,31.5-7.5,45c5.8,7.5,14.7,11.3,23.9,11.3c7.4,0,15.1-2.5,21.6-7.6
				c14.6-11.4,17.9-31.5,7.5-45C271,129.2,262.2,125.4,253,125.4L253,125.4z"/>
		</g>
	</g>
	<text transform="matrix(1 -3.570013e-03 3.570013e-03 1 3.5241 154.9911)" class="st1 st2 st3">PET</text>
	<text transform="matrix(1 -3.570013e-03 3.570013e-03 1 306.6491 153.9089)" class="st1 st2 st3">SHOW</text>
	<path class="st4" d="M240.3,145.1V167c0,2.1,2.3,3.5,4.2,2.4l18.4-10.9c1.8-1.1,1.8-3.7,0-4.8l-18.4-10.9
		C242.6,141.6,240.3,142.9,240.3,145.1z"/>
</g>
<g id="Camada_2">
	<text transform="matrix(0 0.3047 -1 0 -35.5474 -10.9175)" class="st5 st6">&gt;&gt;</text>
</g>
</svg>
