<?xml version="1.0" encoding="utf-8"?>
<!-- Generator: Adobe Illustrator 22.0.1, SVG Export Plug-In . SVG Version: 6.00 Build 0)  -->
<svg version="1.1" id="Camada_1" xmlns="http://www.w3.org/2000/svg" xmlns:xlink="http://www.w3.org/1999/xlink" x="0px" y="0px"
	 viewBox="0 0 500 135.5" style="enable-background:new 0 0 500 135.5;" xml:space="preserve">
<style type="text/css">
	.st0{fill:#FFFFFF;}
</style>
<g>
	<g>
		<path d="M189.6,101.5c-4.2,0-8.7-0.9-13-2.7c-5.8-2.3-10.7-5.9-13.8-10c-3-4-4-8.1-2.6-11.5c1.7-4.2,6.8-6.7,13.7-6.7
			c4.2,0,8.7,0.9,13,2.7c11.9,4.8,19.2,14.5,16.4,21.5C201.5,99,196.4,101.5,189.6,101.5z"/>
		<path d="M173.8,70.1v1h0c4.1,0,8.6,0.9,12.8,2.7c5.7,2.3,10.5,5.8,13.6,9.9c2.9,3.9,3.8,7.8,2.5,11c-1.6,4-6.6,6.4-13.2,6.4
			c-4.1,0-8.6-0.9-12.9-2.7c-11.6-4.7-18.9-14.1-16.1-20.8c1.6-4,6.6-6.4,13.2-6.4L173.8,70.1 M173.8,70.1c-6.8,0-12.3,2.5-14.2,7
			c-3,7.3,4.5,17.2,16.7,22.1c4.6,1.8,9.1,2.7,13.2,2.7c6.8,0,12.3-2.5,14.2-7c3-7.3-4.5-17.2-16.7-22.1
			C182.5,71,177.9,70.1,173.8,70.1L173.8,70.1z"/>
	</g>
	<g>
		<path d="M218.2,68.3c-5.8,0-12.7-3-18.5-8c-4.7-4.1-8.2-9-9.9-13.9c-1.6-4.8-1.2-9,1.2-11.7c1.8-2.1,4.6-3.2,8.2-3.2
			c5.8,0,12.7,3,18.5,8c4.7,4.1,8.2,9,9.9,13.9c1.6,4.8,1.2,9-1.2,11.7C224.6,67.2,221.7,68.3,218.2,68.3z"/>
		<path d="M199.3,32L199.3,32c5.6,0,12.4,2.9,18.1,7.9c4.7,4,8.1,8.9,9.7,13.7c1.5,4.6,1.1,8.6-1.1,11.2c-1.7,2-4.4,3-7.8,3
			c-5.6,0-12.4-2.9-18.1-7.9c-9.5-8.2-13.4-19.4-8.6-24.9C193.2,33,195.9,32,199.3,32 M199.3,31c-3.5,0-6.6,1.1-8.5,3.4
			c-5.1,6-1.2,17.8,8.7,26.3c6.1,5.3,13.1,8.1,18.8,8.1c3.5,0,6.6-1.1,8.5-3.4c5.1-6,1.2-17.8-8.7-26.3
			C211.9,33.8,204.9,31,199.3,31L199.3,31z"/>
	</g>
	<g>
		<path d="M254.7,48.7c-6.7,0-14.2-6.8-18.5-16.6c-5.1-11.8-3.5-23.8,3.4-26.8c1-0.5,2.2-0.7,3.4-0.7c6.7,0,14.2,6.8,18.5,16.6
			C266.6,33,265,45,258.1,48C257,48.4,255.9,48.7,254.7,48.7z"/>
		<path d="M243.1,5.1L243.1,5.1c6.5,0,13.9,6.7,18,16.3c2.4,5.7,3.4,11.6,2.7,16.6c-0.7,4.8-2.8,8.2-5.9,9.6c-1,0.4-2.1,0.6-3.2,0.6
			c-6.5,0-13.9-6.7-18-16.3c-2.4-5.7-3.4-11.6-2.7-16.6c0.7-4.8,2.8-8.2,5.9-9.6C240.9,5.3,241.9,5.1,243.1,5.1 M243.1,4.1
			c-1.2,0-2.4,0.2-3.6,0.7c-7.2,3.1-8.9,15.4-3.7,27.5c4.4,10.2,12.2,16.9,18.9,16.9c1.2,0,2.4-0.2,3.6-0.7
			c7.2-3.1,8.9-15.4,3.7-27.5C257.6,10.8,249.8,4.1,243.1,4.1L243.1,4.1z"/>
	</g>
	<g>
		<path d="M253.8,129.6c-9.4,0-18-4-23.5-11.1c-5-6.4-7-14.5-5.6-22.9c1.4-8.4,6-16,13-21.4c6.2-4.8,13.7-7.5,21.3-7.5
			c9.4,0,18,4,23.5,11.1c10.3,13.2,7,33.1-7.4,44.3C268.9,126.9,261.4,129.6,253.8,129.6z"/>
		<path d="M259,66.2v1h0c9.3,0,17.7,4,23.1,10.9c4.9,6.3,6.9,14.3,5.5,22.5c-1.4,8.3-5.9,15.7-12.8,21.1c-6.1,4.7-13.5,7.3-21,7.3
			c-9.3,0-17.7-4-23.1-10.9c-4.9-6.3-6.9-14.3-5.5-22.5c1.4-8.3,5.9-15.7,12.8-21.1c6.1-4.7,13.5-7.3,21-7.3L259,66.2 M259,66.2
			c-7.4,0-15.1,2.5-21.6,7.6c-14.6,11.4-17.9,31.5-7.5,45c5.8,7.5,14.7,11.3,23.9,11.3c7.4,0,15.1-2.5,21.6-7.6
			c14.6-11.4,17.9-31.5,7.5-45C277,70,268.2,66.2,259,66.2L259,66.2z"/>
	</g>
</g>
<g>
	<path d="M43.1,68.8c-2.2,2-5.4,3.9-9.4,5.7c-1.5,0.7-2.9,1.3-4.4,1.8c-1.5,0.6-2.5,0.9-3,1.1c0.3,5.7,0.4,10.6,0.4,14.6
		c0,1.3,0.2,2.4,0.5,3.2c0.3,0.8,0.5,1.3,0.5,1.6c0,0.5-0.3,1-0.8,1.3c-0.5,0.4-1.1,0.5-1.6,0.5c-0.7,0-1.2-0.5-1.3-1.5
		c0-0.1-0.1-0.5-0.2-1.3c-0.1-0.8-0.2-1.8-0.2-3.2c0-3.7-0.2-9.7-0.5-18c-0.2-4.2-0.2-7.2-0.2-9c0-1.5,0-2.9,0.1-4.2
		c0-1.3,0.1-2.2,0.1-2.6c-3,0.8-5.5,1.6-7.7,2.5c-0.7,0.3-1.7,0.9-3,1.6c-0.6,0.3-1.1,0.6-1.7,0.9c-0.5,0.3-0.9,0.4-1.2,0.4
		c-0.4,0-0.7-0.2-1-0.5C8.1,63.5,8,63.1,8,62.7c0-0.6,0.9-1.4,2.7-2.3c1.8-0.9,3.9-1.8,6.5-2.7c2.6-0.9,4.9-1.5,7.1-1.9
		c2.5-0.5,5.4-0.7,8.4-0.7c4.3,0,7.6,0.5,10.1,1.6c2.4,1.1,3.7,2.7,3.7,5C46.5,64.4,45.3,66.8,43.1,68.8z M40.2,58.8
		c-2-0.6-4.5-1-7.5-1c-2.2,0-4.4,0.2-6.6,0.4c0,0.4-0.1,1.2-0.2,2.6c-0.1,1.4-0.1,2.7-0.1,3.9l0.1,5.1C26,71,26,72.5,26,74.2
		c1-0.1,3.1-0.8,6.3-2.1c3.1-1.4,5.7-2.9,7.8-4.6c2.1-1.7,3.2-3.5,3.2-5.3C43.2,60.6,42.2,59.5,40.2,58.8z"/>
	<path d="M87.4,52.1c-1.3,0.7-3.2,1.5-5.9,2.3c-2.7,0.8-4.9,1.4-6.6,1.7c-2.7,0.5-5.5,0.9-8.2,1.3c-2.7,0.3-4.5,0.5-5.3,0.5
		c0.1,2.7,0.1,5.5,0.2,8.4c0.1,2.9,0.2,4.9,0.2,6c1.8-0.2,4.6-0.7,8.2-1.4l2.7-0.4c3-0.5,5.2-1.5,6.8-2.8c0.8-0.7,1.5-1,1.8-1
		c0.3,0,0.6,0.2,0.8,0.5c0.2,0.4,0.3,0.7,0.3,1.1c0,0.8-0.9,1.8-2.8,2.8c-1.9,1-4,1.8-6.3,2.2c-1.9,0.4-4.1,0.8-6.5,1.2
		c-2.4,0.4-4,0.6-4.7,0.7c0.3,8,1.2,14,2.5,17.9c1.4,0.5,2.7,0.8,4,1c1.3,0.2,3,0.3,5.1,0.3c2.1,0,4-0.3,5.9-0.8
		c1.9-0.5,3.4-1.2,4.5-2c1.1-0.8,1.7-1.6,1.7-2.3c0-0.4-0.1-0.7-0.2-1.1c-0.1-0.4-0.3-0.7-0.6-1.1c-0.1-0.1-0.2-0.4-0.5-0.7
		c-0.2-0.3-0.3-0.5-0.3-0.7c0-0.5,0.5-0.7,1.5-0.7c0.8,0,1.4,0.3,1.9,0.9c0.5,0.6,0.8,1.3,0.8,2.1c0,1.5-0.7,3-2,4.4
		c-1.3,1.5-3.2,2.7-5.5,3.6c-2.3,0.9-4.9,1.4-7.7,1.4c-2.9,0-5.2-0.1-7-0.4c-1.8-0.3-3.2-0.9-4.2-1.8c-1.1-1.3-1.9-3.5-2.4-6.6
		c-0.5-3.1-0.9-7.3-1.2-12.6c-0.9,0.2-1.9,0.4-3,0.6c-1.1,0.2-1.9,0.3-2.5,0.3s-1-0.2-1.4-0.5c-0.4-0.4-0.5-0.8-0.5-1.3
		c0-0.3,0.1-0.6,0.2-0.8c0.1-0.2,0.3-0.4,0.5-0.4c1.5-0.2,2.7-0.3,3.4-0.4l3-0.4c-0.2-6.1-0.4-11-0.6-14.8c-0.7,0-1.3,0-1.7,0.1
		l-3.2,0.1c-0.4,0-0.8-0.1-1-0.3c-0.2-0.2-0.4-0.5-0.4-0.8c0-1.1,0.7-1.9,2.2-2.3c0.6-0.1,1.3-0.2,2.1-0.3c0.9-0.1,1.4-0.2,1.7-0.2
		c0.9-1,1.9-1.5,3-1.5c0.2,0,0.3,0.2,0.5,0.5c0.1,0.3,0.2,0.5,0.2,0.7c3.1-0.2,6.8-0.5,11.1-1.1c2.8-0.4,7.2-1.3,13-2.7l2.6-0.6
		c0.5,0,0.7,0.3,0.7,0.8C88.6,51.2,88.2,51.7,87.4,52.1z"/>
	<path d="M138,53.5c-0.3,0.4-0.8,0.6-1.3,0.6c-0.1,0-0.6-0.1-1.4-0.4c-0.8-0.3-1.6-0.4-2.3-0.4c-2.3,0-4.8,0.1-7.7,0.4
		c-2.9,0.2-5.2,0.6-7.1,1c0.1,2.3,0.3,5.8,0.4,10.7c0.1,4.9,0.2,10,0.2,15.3c0,2.3,0,4.8-0.1,7.5c-0.1,2.8-0.2,4.5-0.3,5.1
		c-0.1,0.5-0.4,0.9-0.9,1.3c-0.5,0.3-1.1,0.5-1.7,0.5c-0.3,0-0.6-0.1-0.8-0.4c-0.2-0.3-0.4-0.6-0.4-1l0.1-2.5
		c0.3-3.7,0.4-8.2,0.4-13.5c0-3.8-0.1-8.3-0.2-13.2c-0.1-5-0.2-8-0.3-9.2c-9.4,1.1-15.7,2.1-18.8,3c-0.6,0.2-1.2,0.3-1.9,0.3
		c-0.8,0-1.7-0.3-2.5-0.9c-0.8-0.6-1.2-1.3-1.2-2c0-0.5,0.1-0.8,0.4-1c0.3-0.2,0.6-0.3,1.1-0.3c2.7-0.1,4.9-0.3,6.8-0.4
		c4.2-0.4,9.4-1,15.8-1.8c0-1.5,0-2.5,0.1-3.1c0.1-0.6,0.2-0.9,0.5-0.9c0.9,0,1.7,0.3,2.4,1c0.1,0.1,0.3,0.5,0.4,1.1
		c0.1,0.6,0.1,1,0.1,1.2c1,0,2.7-0.3,5.1-0.7c5.1-0.8,8.5-1.2,10.4-1.2c2.3,0,3.8,0.3,4.5,0.8c0.5,0.4,0.8,1.1,0.8,2
		C138.5,52.7,138.3,53.1,138,53.5z"/>
</g>
<g>
	<path d="M346.3,89.2c-1.6,2.3-3.8,4.1-6.6,5.6c-2.8,1.4-6.1,2.2-9.7,2.2c-3.1,0-5.5-0.2-7.3-0.7c-1.8-0.5-2.7-1.2-2.7-2.1
		c0-0.5,0.3-1.3,1-2.4s1.2-1.7,1.6-1.7c0.6,0,0.8,0.1,0.8,0.3c0,0.1-0.1,0.3-0.2,0.5c-0.2,0.2-0.2,0.4-0.2,0.6
		c0,0.1,0.3,0.4,0.9,0.6c0.6,0.3,1.5,0.5,2.7,0.8c1.2,0.2,2.7,0.3,4.4,0.3c2.8,0,5.2-0.6,7.3-1.6c2.1-1.1,3.7-2.5,4.8-4.1
		c1.1-1.6,1.7-3.2,1.7-4.8c0-2-1-3.8-2.9-5.2c-2-1.4-5.1-2.8-9.4-4.1c-4.2-1.3-7.4-2.5-9.7-3.4c-2.3-0.9-4.1-2-5.5-3.4
		c-1.4-1.3-2.1-3-2.1-4.9c0-2.6,1.4-5.1,4.3-7.7c2.9-2.5,6.5-4.6,10.8-6.2c4.3-1.6,8.2-2.4,11.9-2.4c1.9,0,2.9,0.4,3,1.1
		c0.1,0.8,0.2,1.6,0.2,2.5c0,0.7-0.3,1.1-0.8,1.1c-0.2,0-0.5-0.1-0.8-0.2c-0.3-0.2-0.6-0.3-0.8-0.4c-0.3-0.1-0.6-0.2-1-0.3
		c-0.4-0.1-0.9-0.1-1.6-0.1c-2.4,0-5.4,0.7-8.8,1.9c-3.4,1.3-6.4,2.9-8.9,4.8c-2.5,1.9-3.8,3.7-3.7,5.4c0,1.4,0.6,2.6,1.7,3.7
		c1.2,1,2.7,1.9,4.6,2.6c1.9,0.7,4.7,1.6,8.2,2.7c5.2,1.5,9,3.2,11.5,5c2.5,1.9,3.7,4.2,3.7,6.9C348.6,84.6,347.8,87,346.3,89.2z"/>
	<path d="M393.9,76.9c-0.8,0.3-1.9,0.5-3.1,0.5c-1.2,0.1-2,0.1-2.4,0.1c0,1.5-0.1,3.1-0.3,4.9c-0.1,1.8-0.2,3.3-0.3,4.4l-0.2,2.2
		l-0.1,2.3l-0.4,5.4c-0.2,2.4-1,3.6-2.3,3.6c-0.5,0-1-0.6-1.5-1.8c-0.5-1.2-0.7-2.2-0.7-2.9c0-0.2,0.2-0.6,0.6-1.1
		c0.4-0.6,0.6-1.3,0.7-2.1c0.2-1.3,0.4-3.5,0.6-6.6c0.2-3.1,0.4-5.6,0.5-7.7c-1.8,0.1-3.8,0.4-5.9,0.7c-0.9,0.1-3.1,0.3-6.3,0.7
		c-3.3,0.3-5.9,0.6-7.7,0.7c-0.2,3.1-0.4,6.9-0.6,11.3c-0.2,4.5-0.3,7.2-0.3,8.2c0,0.4,0.1,0.9,0.2,1.5c0.1,0.6,0.2,1.1,0.2,1.4
		c0,0.4-0.3,0.8-0.9,1.3c-0.6,0.4-1.1,0.6-1.5,0.6c-0.5,0-0.9-0.3-1.2-0.9c-0.3-0.6-0.5-1.3-0.5-2.1c0-0.4,0-1.1,0.1-2.1
		c0.1-1,0.2-1.8,0.2-2.5c0.2-1.3,0.3-2.3,0.3-3.1c0.2-2.8,0.4-5.4,0.5-8c0.1-2.6,0.2-4.3,0.3-5.2c-3,0.5-5.8,0.8-8.4,0.8
		c-0.9,0-1.7-0.2-2.3-0.7c-0.6-0.4-1-1.1-1-1.9c0-0.6,0.1-1.1,0.5-1.4s0.9-0.5,1.9-0.5l3.7,0.1c2.4,0.1,4.4,0.1,5.9,0.1
		c0.2-4,0.3-7.2,0.3-9.6c0-5.4-0.1-10.3-0.2-14.6l0-2.6c0-0.7,0.3-1.3,0.8-1.7c0.5-0.4,1.2-0.7,1.9-0.7c0.5,0,0.9,0.4,1.1,1.2
		c0.2,0.8,0.3,1.7,0.3,2.7c0,1-0.1,3.1-0.3,6.3c-0.3,5.4-0.4,8.3-0.4,8.7l-0.3,10.1c3.9-0.1,10.6-0.7,20.1-1.9
		c0.2-1.4,0.5-4.9,0.9-10.7c0.2-3.1,0.3-5.3,0.5-6.7l0.4-5.5c0.6-6.9,0.9-11.2,0.9-13c0-0.6,0.2-1.1,0.7-1.5c0.5-0.4,1-0.6,1.6-0.6
		c0.8,0,1.3,0.8,1.3,2.5c0,1-0.2,3.8-0.7,8.2c-0.5,5.8-0.8,9.1-0.8,9.7c-0.3,3.6-0.5,7.1-0.8,10.4c-0.2,3.3-0.4,5.5-0.5,6.6
		c0.8-0.1,1.6-0.4,2.3-0.6c0.8-0.3,1.5-0.4,2-0.4c0.5,0,1,0.3,1.6,0.8c0.6,0.6,0.9,1,0.9,1.2C395.5,76,394.9,76.6,393.9,76.9z"/>
	<path d="M442,79.3c-2.7,4.4-6.2,8-10.5,10.7c-4.3,2.7-8.6,4.1-12.9,4.1c-2.5,0-4.9-0.5-7.2-1.6c-2.3-1-4.1-2.6-5.5-4.7
		c-1.4-2.1-2.1-4.5-2.1-7.5c0-5,1.3-10.1,3.8-15.5c2.6-5.3,6.1-10.4,10.7-15.1c0.5-0.4,0.9-0.7,1.3-0.8s0.9-0.2,1.5-0.2
		c0.5,0,0.9,0.1,1.4,0.3c0.4,0.2,0.7,0.5,0.7,0.8c0,0.2-0.1,0.5-0.2,0.8s-0.3,0.6-0.3,0.7c0.3,0,0.6,0,1-0.1
		c0.4-0.1,1.2-0.1,2.4-0.1c1.4,0,3.2,0.2,5.5,0.6c2.3,0.4,4,0.9,5.1,1.4c3.1,1.4,5.4,3.1,7,5.2c1.6,2.1,2.4,4.4,2.4,6.9
		C446,70.2,444.7,74.9,442,79.3z M441.1,60.2c-1.3-1.7-3.2-3.1-5.7-4.2c-1.4-0.6-3.1-0.9-5.1-0.9c-0.7,0-1.5,0.1-2.7,0.2l-2.6,0.1
		c-2.3,0-3.4-0.5-3.4-1.4c0-0.3,0-0.6,0.1-0.9c0-0.3,0.1-0.5,0.1-0.6c-1,0-1.8,0.3-2.4,0.9c-3.8,4-6.8,8.3-8.9,12.8
		c-2.1,4.5-3.1,8.9-3.1,13.2c0,4,1,6.9,3,8.7c2,1.8,4.7,2.7,8.2,2.7c3.9,0,7.8-1.2,11.6-3.4c3.8-2.3,6.8-5.2,9.2-8.9
		c2.4-3.7,3.5-7.5,3.5-11.4C443,64.2,442.3,61.9,441.1,60.2z"/>
	<path d="M494.7,64.3c-0.3,3.9-0.6,7.3-0.9,10.2c-0.2,2.5-0.7,5.3-1.3,8.4c-0.6,3.1-1.4,5.7-2.4,7.9c-0.9,2.2-1.9,3.3-2.9,3.3
		c-0.6,0-1.3-1.1-2.1-3.2c-0.8-2.1-1.8-5.2-3.1-9.3l-1.2-3.9c-0.9-2.7-1.8-5.5-2.8-8.3c-1-2.8-1.8-4.8-2.4-5.9l-3,10.4
		c-2.7,9.5-4.7,16-6,19.5c0,0.1-0.2,0.4-0.4,1c-0.2,0.6-0.6,1-1.1,1.3c-0.5,0.3-1.2,0.5-2,0.5c-0.2,0-0.6-1.2-1.2-3.7
		c-0.6-2.4-1.2-5.1-1.8-8.1c-1.6-6.7-2.4-10.2-2.5-10.6c-1.1-4.6-2.1-8-2.8-10.3c-0.7-2.3-1.4-3.7-2-4.1c-0.8-0.6-1.2-1.3-1.2-2
		c0-0.3,0.2-0.7,0.7-1.1c0.5-0.4,1.1-0.6,1.7-0.6c0.6,0,1,0,1.3,0.1c0.3,0.1,0.6,0.3,0.8,0.6c0.7,1.1,1.9,5.6,3.9,13.7
		c0.2,0.6,0.4,1.5,0.7,2.7c1,4.1,1.8,7.6,2.5,10.6c0.4,1.5,0.7,2.8,1,4s0.5,2.1,0.7,2.7c0-0.4,0.5-2.1,1.4-4.9
		c1.5-4.8,2.7-8.9,3.5-12.2c0.9-3.4,1.7-6.2,2.4-8.4c0.7-2.2,1.3-3.6,1.7-4.2c0.3-0.3,0.7-0.6,1.2-0.9c0.5-0.3,1-0.4,1.4-0.4
		c0.3,0,0.6,0.1,0.8,0.3c0.2,0.2,0.4,0.5,0.5,0.8c0.1,0.3,0.3,0.6,0.4,0.8c0.5,0.9,1.2,2.9,2.3,5.9c1.1,3,2,6,2.9,8.9l1,3.2
		c1.5,5.2,2.6,8.7,3.3,10.4c1.6-3.3,2.7-8.8,3.3-16.5c0.3-2.9,0.5-7,0.4-12.3l-0.1-7.1c0-0.6,0.1-1,0.2-1.3c0.1-0.3,0.5-0.4,1-0.4
		c0.6,0,1.1,0.2,1.6,0.5c0.5,0.3,0.8,0.7,0.8,1.2C495.1,56.8,495,60.5,494.7,64.3z"/>
</g>
<path class="st0" d="M246.3,85.9v21.9c0,2.1,2.3,3.5,4.2,2.4l18.4-10.9c1.8-1.1,1.8-3.7,0-4.8l-18.4-10.9
	C248.6,82.4,246.3,83.8,246.3,85.9z"/>
</svg>
