<?xml version="1.0" encoding="utf-8"?>
<!-- Generator: Adobe Illustrator 22.0.1, SVG Export Plug-In . SVG Version: 6.00 Build 0)  -->
<svg version="1.1" id="Camada_1" xmlns="http://www.w3.org/2000/svg"
	 viewBox="0 0 443.3 344" style="fill:#233F14;">
<g>
	<path d="M424.8,46.7H18.5c-5.5,0-9.9-4.4-9.9-9.9V26.5c0-5.5,4.4-9.9,9.9-9.9h406.3c5.5,0,9.9,4.4,9.9,9.9v10.3
		C434.7,42.2,430.2,46.7,424.8,46.7z"/>
</g>
<g>
	<path d="M424.8,139.7H18.5c-5.5,0-9.9-4.4-9.9-9.9v-10.3c0-5.5,4.4-9.9,9.9-9.9h406.3c5.5,0,9.9,4.4,9.9,9.9v10.3
		C434.7,135.2,430.2,139.7,424.8,139.7z"/>
</g>
<g>
	<path d="M424.8,232.7H18.5c-5.5,0-9.9-4.4-9.9-9.9v-10.3c0-5.5,4.4-9.9,9.9-9.9h406.3c5.5,0,9.9,4.4,9.9,9.9v10.3
		C434.7,228.2,430.2,232.7,424.8,232.7z"/>
</g>
<g>
	<path d="M424.8,325.7H18.5c-5.5,0-9.9-4.4-9.9-9.9v-10.3c0-5.5,4.4-9.9,9.9-9.9h406.3c5.5,0,9.9,4.4,9.9,9.9v10.3
		C434.7,321.2,430.2,325.7,424.8,325.7z"/>
</g>
</svg>
